name C:\Users\u0150099\Documents\master_thesis\3dpredictsim\Results\debug\Fal_s1_mtjc4_sc_cspx10_oy_MTc2_MTPm_k1_d01_MTJm_nl_MG_exp5_table_d01_PF_Natali2010_ls146_ig21.mot
datacolumns 128
datarows 4
range 0.53684953 0.56906050
endheader
time	pelvis_tilt	pelvis_list	pelvis_rotation	pelvis_tx	pelvis_ty	pelvis_tz	hip_flexion_l	hip_adduction_l	hip_rotation_l	hip_flexion_r	hip_adduction_r	hip_rotation_r	knee_angle_l	knee_angle_r	ankle_angle_l	ankle_angle_r	subtalar_angle_l	subtalar_angle_r	mtj_angle_l	mtj_angle_r	mtp_angle_l	mtp_angle_r	lumbar_extension	lumbar_bending	lumbar_rotation	arm_flex_l	arm_add_l	arm_rot_l	arm_flex_r	arm_add_r	arm_rot_r	elbow_flex_l	elbow_flex_r	pro_sup_l	pro_sup_r	glut_med1_l/activation	glut_med2_l/activation	glut_med3_l/activation	glut_min1_l/activation	glut_min2_l/activation	glut_min3_l/activation	semimem_l/activation	semiten_l/activation	bifemlh_l/activation	bifemsh_l/activation	sar_l/activation	add_long_l/activation	add_brev_l/activation	add_mag1_l/activation	add_mag2_l/activation	add_mag3_l/activation	tfl_l/activation	pect_l/activation	grac_l/activation	glut_max1_l/activation	glut_max2_l/activation	glut_max3_l/activation	iliacus_l/activation	psoas_l/activation	quad_fem_l/activation	gem_l/activation	peri_l/activation	rect_fem_l/activation	vas_med_l/activation	vas_int_l/activation	vas_lat_l/activation	med_gas_l/activation	lat_gas_l/activation	soleus_l/activation	tib_post_l/activation	flex_dig_l/activation	flex_hal_l/activation	tib_ant_l/activation	per_brev_l/activation	per_long_l/activation	per_tert_l/activation	ext_dig_l/activation	ext_hal_l/activation	ercspn_l/activation	intobl_l/activation	extobl_l/activation	glut_med1_r/activation	glut_med2_r/activation	glut_med3_r/activation	glut_min1_r/activation	glut_min2_r/activation	glut_min3_r/activation	semimem_r/activation	semiten_r/activation	bifemlh_r/activation	bifemsh_r/activation	sar_r/activation	add_long_r/activation	add_brev_r/activation	add_mag1_r/activation	add_mag2_r/activation	add_mag3_r/activation	tfl_r/activation	pect_r/activation	grac_r/activation	glut_max1_r/activation	glut_max2_r/activation	glut_max3_r/activation	iliacus_r/activation	psoas_r/activation	quad_fem_r/activation	gem_r/activation	peri_r/activation	rect_fem_r/activation	vas_med_r/activation	vas_int_r/activation	vas_lat_r/activation	med_gas_r/activation	lat_gas_r/activation	soleus_r/activation	tib_post_r/activation	flex_dig_r/activation	flex_hal_r/activation	tib_ant_r/activation	per_brev_r/activation	per_long_r/activation	per_tert_r/activation	ext_dig_r/activation	ext_hal_r/activation	ercspn_r/activation	intobl_r/activation	extobl_r/activation	
          0.53684953	         -2.92151324	          2.02319345	         -4.16075206	          0.71400988	          0.90919853	          0.00308838	         30.11456125	          2.59241161	         -6.87478872	        -12.48181245	          0.79160365	          3.18542000	        -15.54978301	        -18.92168648	          7.60023001	          3.07188396	          0.31454042	         -1.82984461	          2.98095124	         -1.21411921	         -4.47481573	         27.84445481	         -4.51598848	         -0.34092551	          1.48209816	         -2.31475105	        -13.46297538	         12.03399528	          5.73305330	        -13.59799525	         19.25026150	         18.99467074	         35.92782705	         86.51662706	         86.51662706	          0.05000022	          0.05000190	          0.05000140	          0.05894649	          0.05213743	          0.05000183	          0.26832648	          0.08193237	          0.12065695	          0.08193259	          0.11197433	          0.06232716	          0.05760926	          0.05000104	          0.05000099	          0.18256046	          0.05000066	          0.05000800	          0.08134575	          0.05000092	          0.05000053	          0.23475883	          0.11389124	          0.11924532	          0.11673941	          0.05894756	          0.05894739	          0.05000010	          0.05000026	          0.05000023	          0.05000018	          0.06949591	          0.06235294	          0.05356325	          0.23324353	          0.06949657	          0.07757596	          0.47588044	          0.29496722	          0.24908063	          0.33371599	          0.65899470	          0.25744605	          0.06885127	          0.10129905	          0.12844917	          0.28497643	          0.05000011	          0.05000004	          0.56724420	          0.15828257	          0.05417156	          0.05000159	          0.05000018	          0.05000013	          0.05000017	          0.05000099	          0.06186825	          0.05000191	          0.05000082	          0.05000266	          0.05303344	          0.34620120	          0.05000712	          0.05000031	          0.05000130	          0.05000082	          0.05000068	          0.24535237	          0.47081656	          0.05000005	          0.05000018	          0.05000009	          0.55347443	          0.18638123	          0.18626232	          0.15404935	          0.44924266	          0.63261571	          0.16874629	          0.54417808	          0.45575793	          0.52369537	          0.05000000	          0.08193353	          0.34332931	          0.05000014	          0.05000005	          0.08193245	          0.05000003	          0.05000009	          0.05000004	
          0.54758652	         -2.92656842	          2.01939492	         -4.55524428	          0.73098926	          0.90770220	          0.00290223	         30.18264511	          2.63583431	         -6.66287324	        -13.57528678	          0.37220359	          2.78522431	        -15.97781798	        -18.52657279	          7.34389228	          2.07428509	         -0.00346769	         -0.77386360	          3.06447566	         -2.29186125	         -4.24521601	         30.26371450	         -4.36694742	         -0.43885087	          1.59296922	         -3.24111460	        -13.45079832	         11.47697456	          5.56056108	        -13.54546571	         19.33457238	         18.36545172	         37.36116732	         86.51662706	         86.51662706	          0.06583191	          0.05000088	          0.05000359	          0.05000056	          0.05000098	          0.05001310	          0.23081397	          0.06949617	          0.10234277	          0.06949630	          0.09659496	          0.06842629	          0.05000386	          0.05000540	          0.05000176	          0.23047993	          0.07625329	          0.05001509	          0.06949646	          0.05000124	          0.05000080	          0.29902344	          0.09660409	          0.10114547	          0.11810973	          0.05000134	          0.05000059	          0.05000001	          0.05000003	          0.05000002	          0.05000002	          0.05894749	          0.05894749	          0.05877246	          0.26259717	          0.05894804	          0.06809154	          0.48156394	          0.30231051	          0.25594510	          0.37748644	          0.65756239	          0.27283090	          0.06422559	          0.11041424	          0.10895223	          0.24172065	          0.05000008	          0.05000003	          0.48114374	          0.13425733	          0.05000014	          0.05000154	          0.05000021	          0.05000015	          0.05000011	          0.05000053	          0.09892934	          0.06351223	          0.05000066	          0.05000344	          0.11051836	          0.29365284	          0.05000141	          0.05000021	          0.05000114	          0.05000074	          0.05000063	          0.20811102	          0.53125042	          0.05000003	          0.05000012	          0.05000005	          0.48467947	          0.19576163	          0.19345868	          0.16208092	          0.42030740	          0.59792005	          0.14626072	          0.49919442	          0.47000307	          0.44420610	          0.05000000	          0.06949707	          0.29121623	          0.05000014	          0.05000004	          0.06949616	          0.05000001	          0.05000013	          0.05000005	
          0.55832351	         -2.92950571	          2.00738096	         -4.94103585	          0.74829423	          0.90617680	          0.00268394	         30.22392958	          2.68179464	         -6.41082022	        -14.57203076	         -0.06164446	          2.35217806	        -17.03754890	        -18.28351581	          6.86662283	          0.92680018	         -0.37052908	          0.33823847	          3.16651759	         -3.49584195	         -4.05720925	         32.91228529	         -4.20324822	         -0.53339301	          1.70156301	         -4.24222216	        -13.45079644	         11.08618675	          5.30596977	        -13.49732233	         19.36491631	         17.86967981	         38.81271089	         86.51662706	         86.51662706	          0.05583954	          0.05000039	          0.05000011	          0.05000443	          0.05000151	          0.05000047	          0.19577931	          0.05894753	          0.08680843	          0.05894764	          0.08193325	          0.09659379	          0.05040176	          0.05000134	          0.05000067	          0.28147029	          0.06467939	          0.05011379	          0.05894783	          0.05000052	          0.11882967	          0.39828075	          0.08194084	          0.08579289	          0.13094195	          0.09408390	          0.05000084	          0.08193266	          0.05000018	          0.05000019	          0.05000016	          0.05000001	          0.05000004	          0.05000000	          0.25512109	          0.05000060	          0.05775621	          0.52123476	          0.36011673	          0.25926557	          0.53685252	          0.71586880	          0.40618336	          0.06878870	          0.09365505	          0.09241465	          0.20503051	          0.05000009	          0.05000003	          0.40811219	          0.11387883	          0.05000032	          0.05000177	          0.05000012	          0.05000010	          0.05000016	          0.05000063	          0.10013721	          0.14327497	          0.05000073	          0.05000166	          0.09374356	          0.28065839	          0.05223263	          0.05000020	          0.05000080	          0.05000052	          0.05000047	          0.17652241	          0.54336618	          0.05000003	          0.05000020	          0.05000042	          0.43296625	          0.19203418	          0.19119885	          0.16055656	          0.37331830	          0.53213149	          0.13157659	          0.42658863	          0.39866285	          0.37678130	          0.05000002	          0.05894829	          0.24701326	          0.05000003	          0.05000001	          0.05894754	          0.05000000	          0.05630363	          0.05000002	
          0.56906050	         -2.93017646	          1.98949149	         -5.31417149	          0.76589684	          0.90461558	          0.00243692	         30.19923341	          2.72916020	         -6.11242488	        -15.45413487	         -0.50509523	          1.91028309	        -18.70560667	        -18.22098657	          6.35862361	         -0.40051429	         -0.82851965	          1.46783147	          3.23919849	         -4.74809502	         -3.81540812	         35.65808141	         -4.02476737	         -0.62584165	          1.80582909	         -5.30603246	        -13.45806776	         10.82240452	          4.96905421	        -13.46811251	         19.38237361	         17.49178257	         40.30118165	         86.51662706	         86.51662706	          0.20553941	          0.05000016	          0.26948799	          0.05000031	          0.05000031	          0.05000041	          0.16606248	          0.05000005	          0.07363202	          0.05000014	          0.06949690	          0.08193235	          0.21490211	          0.13898738	          0.16112475	          0.33055303	          0.05894668	          0.06949443	          0.05000033	          0.05000020	          0.22614938	          0.46850073	          0.06950328	          0.07277063	          0.11106673	          0.07980331	          0.12910092	          0.06949632	          0.08687453	          0.07976924	          0.06644989	          0.06949612	          0.06949613	          0.06949579	          0.26099617	          0.05000003	          0.05000003	          0.63513372	          0.38927823	          0.28803902	          0.67508032	          0.72850709	          0.41879240	          0.07342431	          0.10533362	          0.07838727	          0.17390947	          0.05420776	          0.05894750	          0.34616590	          0.09659353	          0.05352237	          0.05000149	          0.05000212	          0.05894749	          0.05000040	          0.05894689	          0.18182832	          0.35819249	          0.17520353	          0.08868079	          0.11395288	          0.23805825	          0.06949383	          0.05894974	          0.05612753	          0.05860847	          0.05894837	          0.14972855	          0.60361335	          0.05997720	          0.05894689	          0.05000102	          0.36724742	          0.16288770	          0.16226908	          0.13624161	          0.31665326	          0.45136063	          0.11160492	          0.36183783	          0.33815088	          0.31959066	          0.11318049	          0.05000072	          0.20951975	          0.05000004	          0.05000003	          0.05000009	          0.06697338	          0.05000023	          0.05000010	
